PathFileType	4	(X/Y/Z)	/Users/niels/Desktop/University/Third Semester/Perception and Action/Exam/Gymnastics Motion Tracking/Code for Gym Tracking/Analyzed Data/Webcam_Backflip/id16_1_trajectory_Sports2D/id16_1_trajectory_Sports2D_px_person00.trc
DataRate	CameraRate	NumFrames	NumMarkers	Units	OrigDataRate	OrigDataStartFrame	OrigNumFrames
29.7	29.7	14	22	m	29.7	83	100
Frame#	Time	Hip			RHip			RKnee			RAnkle			RBigToe			RSmallToe			RHeel			LHip			LKnee			LAnkle			LBigToe			LSmallToe			LHeel			Neck			Head			Nose			RShoulder			RElbow			RWrist			LShoulder			LElbow			LWrist		
		X1	Y1	Z1	X2	Y2	Z2	X3	Y3	Z3	X4	Y4	Z4	X5	Y5	Z5	X6	Y6	Z6	X7	Y7	Z7	X8	Y8	Z8	X9	Y9	Z9	X10	Y10	Z10	X11	Y11	Z11	X12	Y12	Z12	X13	Y13	Z13	X14	Y14	Z14	X15	Y15	Z15	X16	Y16	Z16	X17	Y17	Z17	X18	Y18	Z18	X19	Y19	Z19	X20	Y20	Z20	X21	Y21	Z21	X22	Y22	Z22
83	2.7946127946127945	0.8900581596745141	-0.9949688961311917	0.0	0.8360004606553321	-0.9909392626239056	0.0	0.7981436167168974	-1.0755980069799107	0.0	0.81439306640625	-1.04120849609375	0.0	0.6857673339843746	-0.24904003906249994	0.0			0.0			0.0	0.9423912200016534	-0.9986572173418926	0.0	0.9528249886906349	-1.0733686153875224	0.0			0.0			0.0			0.0			0.0	0.9208074390418969	-0.6948906589025683	0.0	0.9165795396537001	-0.5716025123262825	0.0	0.913058102972034	-0.6420339811781882	0.0	0.83605821399345	-0.7134836093599016	0.0	0.7074604415936715	-0.6981214420642987	0.0	0.6126639446688472	-0.7076173126961202	0.0	1.00520133558852	-0.7337122406555583	0.0	1.1015400030402684	-0.8028027095999198	0.0	1.0014983199889973	-0.8385266297849449	0.0
84	2.8282828282828283	0.8898102794430457	-0.9958927844498653	0.0	0.8358562657151913	-0.9930739598996768	0.0	0.7981473538237263	-1.0753550619566414	0.0	0.81439306640625	-1.04120849609375	0.0	0.6857673339843746	-0.24904003906249994	0.0			0.0			0.0	0.9424919747699858	-1.0020525756938805	0.0	0.9518404437695267	-1.0733283639536486	0.0			0.0			0.0			0.0			0.0	0.9254366801976601	-0.6955768196417443	0.0	0.9236433257041937	-0.5709175485682529	0.0	0.9165161080715529	-0.6412637186901544	0.0	0.8401571941117414	-0.7113751029279497	0.0	0.71588854552321	-0.6855224874014852	0.0	0.6041204203217363	-0.6651448376928476	0.0	1.0077673793937307	-0.734017787816962	0.0	1.1011800807259506	-0.7829727106734524	0.0	0.9867167184872817	-0.7892017201345749	0.0
85	2.861952861952862	0.8894412203607793	-0.9961840931423793	0.0	0.8360257791047704	-0.9946898243061469	0.0	0.7989680555568064	-1.0748961487774813	0.0	0.81439306640625	-1.04120849609375	0.0	0.6857673339843746	-0.24904003906249994	0.0			0.0			0.0	0.942222645591429	-1.0045982715368933	0.0	0.9497564159975376	-1.0733396292420727	0.0			0.0			0.0			0.0			0.0	0.9286239460478635	-0.6957635913078725	0.0	0.9284805797268582	-0.5697329817569713	0.0	0.9178659834238435	-0.6399156500250636	0.0	0.843070580278704	-0.7098547187065083	0.0	0.7227552024347398	-0.6732686805116257	0.0	0.604751026341786	-0.625217968589831	0.0	1.0087931150360836	-0.7334623750700738	0.0	1.0990208191583237	-0.758249810069104	0.0	0.9809196758822504	-0.7367419790698341	0.0
86	2.8956228956228958	0.88910440460812	-0.9960382700365749	0.0	0.8365168867103495	-0.9954859664168489	0.0	0.7999808688091018	-1.0740887869322138	0.0	0.81439306640625	-1.04120849609375	0.0	0.6857673339843746	-0.24904003906249994	0.0			0.0			0.0	0.941612024617851	-1.0057209760103099	0.0	0.9469342287228162	-1.0730521283409598	0.0			0.0			0.0			0.0			0.0	0.9303964950195279	-0.6953561946383507	0.0	0.9307904636745202	-0.5683056773866231	0.0	0.9178222610501969	-0.6386292441883351	0.0	0.8449894847890275	-0.7091119980071241	0.0	0.7282514479222446	-0.661837101766153	0.0	0.6124759663054316	-0.590819640750826	0.0	1.0085507823763593	-0.7322216874605354	0.0	1.0951450901578164	-0.7313020405032216	0.0	0.9813143146482843	-0.68554188195018	0.0
87	2.929292929292929	0.8888068680778312	-0.9959590106561462	0.0	0.8370438387393545	-0.9955958365291083	0.0	0.8004847402476521	-1.0729802454109187	0.0	0.81439306640625	-1.04120849609375	0.0	0.6857673339843746	-0.24904003906249994	0.0			0.0			0.0	0.9408076090025603	-1.0054786024775757	0.0	0.943899635877764	-1.0723466204687773	0.0			0.0			0.0			0.0			0.0	0.9308552101508808	-0.6945044098081288	0.0	0.9305618465192593	-0.567342758549231	0.0	0.9172277318573663	-0.6381881525271293	0.0	0.8461166821756173	-0.7093201166667413	0.0	0.7329252675007025	-0.651942216474534	0.0	0.6248977040565871	-0.5636047457202686	0.0	1.0075336321713806	-0.7306645098717572	0.0	1.090184392332782	-0.7050758158331744	0.0	0.9854505746091018	-0.6388415056300901	0.0
88	2.962962962962963	0.8884544144247067	-0.9963231270501267	0.0	0.8372054390841294	-0.9951532629482109	0.0	0.8000923233566801	-1.071772443732814	0.0	0.81439306640625	-1.04120849609375	0.0	0.6857673339843746	-0.24904003906249994	0.0			0.0			0.0	0.9400176223251288	-1.004202808775302	0.0	0.9410629820276628	-1.071444878785587	0.0			0.0			0.0			0.0			0.0	0.9302519131544167	-0.6934966469053253	0.0	0.928116550799296	-0.5677879990326337	0.0	0.9165623186422285	-0.63873488589531	0.0	0.8466306268818365	-0.7104433400941744	0.0	0.7371618439306887	-0.6442051767921586	0.0	0.6396673892865579	-0.5437046691376308	0.0	1.0062206419586395	-0.7292204763728695	0.0	1.0850286096581443	-0.682059825102898	0.0	0.991530209619283	-0.5988223983074418	0.0
89	2.9966329966329965	0.887922138086175	-0.9971947807823174	0.0	0.8367195806060216	-0.9942545538849481	0.0	0.7988619928433991	-1.0707445716107988	0.0	0.81439306640625	-1.04120849609375	0.0	0.6857673339843746	-0.24904003906249994	0.0			0.0			0.0	0.9393538140439521	-1.0023104030964045	0.0	0.9385044627728149	-1.0707511227364384	0.0			0.0			0.0			0.0			0.0	0.9289666136914964	-0.6926350112845722	0.0	0.924118736964518	-0.5701884807628586	0.0	0.9156843855131901	-0.6397574010802638	0.0	0.8466676661312572	-0.7121508129060594	0.0	0.7409450712784975	-0.638751435152672	0.0	0.6547364115107083	-0.5300335871392378	0.0	1.0048574596957336	-0.7282193734689232	0.0	1.0804716995612955	-0.6637638342898076	0.0	0.9981260004425291	-0.5667229710844448	0.0
90	3.0303030303030303	0.8871137235908053	-0.9983868611548566	0.0	0.8355303845744892	-0.993088522658381	0.0	0.7971099749209286	-1.0701435583285155	0.0	0.81439306640625	-1.04120849609375	0.0	0.6857673339843746	-0.24904003906249994	0.0			0.0			0.0	0.9387749052988986	-1.0003130062520136	0.0	0.9361059191438251	-1.070575114416977	0.0			0.0			0.0			0.0			0.0	0.9273521237159407	-0.6920994522209233	0.0	0.9194351427423935	-0.574180853789345	0.0	0.9142513941861714	-0.6407194405819284	0.0	0.8463263437941038	-0.7138944741919022	0.0	0.7440139309034329	-0.635116170277041	0.0	0.6684684220601458	-0.5209250731302899	0.0	1.003485744153646	-0.7277098881431544	0.0	1.0770122605139765	-0.6505831272008117	0.0	1.0040056923856524	-0.5428872875845294	0.0
91	3.063973063973064	0.886029294556841	-0.9996488445788587	0.0	0.8337800658609432	-0.991908410766902	0.0	0.795170978547831	-1.070041638650237	0.0	0.81439306640625	-1.04120849609375	0.0	0.6857673339843746	-0.24904003906249994	0.0			0.0			0.0	0.9381644397689299	-0.9987491602485528	0.0	0.9337906821249523	-1.0709657991237809	0.0			0.0			0.0			0.0			0.0	0.9256521145468971	-0.6918822010852561	0.0	0.9148525103844684	-0.5786958178957293	0.0	0.9122274826065957	-0.6414283433882183	0.0	0.8457098297079328	-0.7151545909527571	0.0	0.7461441786684461	-0.6325456199943856	0.0	0.6796232532079055	-0.5147278396057963	0.0	1.0021434784315355	-0.7274619461704005	0.0	1.0747666001799228	-0.6419658905185213	0.0	1.0082210567824967	-0.5267352459418555	0.0
92	3.0976430976430978	0.8847737135999753	-1.0007995278431157	0.0	0.831727844735124	-0.9908971626177313	0.0	0.7933070221750589	-1.0702788951043374	0.0	0.81439306640625	-1.04120849609375	0.0	0.6857673339843746	-0.24904003906249994	0.0			0.0			0.0	0.9374438057510458	-0.9979619958718541	0.0	0.931622191516783	-1.0717135902141064	0.0			0.0			0.0			0.0			0.0	0.9240549540033834	-0.6918526968180934	0.0	0.9109001542617609	-0.5826387907539013	0.0	0.9099170785821753	-0.6419471478502031	0.0	0.8449643788695551	-0.7156752190147901	0.0	0.7473455362610235	-0.6304119364656549	0.0	0.6875016316816623	-0.5102536938617519	0.0	1.0009694120296495	-0.727203224384871	0.0	1.0734970448288554	-0.6367518236963563	0.0	1.01031349959941	-0.5168787595033014	0.0
93	3.131313131313131	0.8835120028559675	-1.0017032947855051	0.0	0.8296795307817119	-0.9900657585479127	0.0	0.7916933047649635	-1.07058879283393	0.0	0.81439306640625	-1.04120849609375	0.0	0.6857673339843746	-0.24904003906249994	0.0			0.0			0.0	0.9366710936476792	-0.9979134132984419	0.0	0.9297591731155018	-1.072496071732455	0.0			0.0			0.0			0.0			0.0	0.9227454721178271	-0.6918811600726633	0.0	0.9078422153851095	-0.585434091121966	0.0	0.9077392441864511	-0.6423951854547024	0.0	0.8442890271694615	-0.715526676383591	0.0	0.7478964401350008	-0.6284540276273608	0.0	0.6921563826310402	-0.5069667699645956	0.0	1.000120488847647	-0.726791397788533	0.0	1.0727656247635893	-0.6336329460064405	0.0	1.010389999248782	-0.5115267236622566	0.0
94	3.164983164983165	0.8824388559459669	-1.0022456708197858	0.0	0.827949191069433	-0.98929604873853	0.0	0.7904187852539576	-1.0708033385443156	0.0	0.81439306640625	-1.04120849609375	0.0	0.6857673339843746	-0.24904003906249994	0.0			0.0			0.0	0.9360456075077386	-0.9982567205385099	0.0	0.9283459508523534	-1.0730928459085547	0.0			0.0			0.0			0.0			0.0	0.9218731724763195	-0.6919131965451666	0.0	0.905727059953569	-0.5870837885920065	0.0	0.9060385458007622	-0.6428338781064609	0.0	0.8438632393299338	-0.7149971911543748	0.0	0.7481834674261683	-0.6267461238802868	0.0	0.6942488837487852	-0.5047670304210399	0.0	0.9996491486547907	-0.7262250124096175	0.0	1.072143645320075	-0.6315657996748979	0.0	1.008966159240662	-0.5089627046318369	0.0
95	3.1986531986531985	0.8817562258013344	-1.0023961597672706	0.0	0.8268439614343505	-0.9884964979875561	0.0	0.7895163446568184	-1.0709362648100058	0.0	0.81439306640625	-1.04120849609375	0.0	0.6857673339843746	-0.24904003906249994	0.0			0.0			0.0	0.9357842522946088	-0.9985948309117378	0.0	0.9274581324203608	-1.0734844091275118	0.0			0.0			0.0			0.0			0.0	0.9214963131506418	-0.6919684514891717	0.0	0.9044802347158801	-0.5878339054355872	0.0	0.9049985480440521	-0.643249603153897	0.0	0.8437509862449942	-0.7144233639210025	0.0	0.7484845543396257	-0.6254783767615837	0.0	0.6946123144576295	-0.5035887409910152	0.0	0.9994820153840914	-0.7256174558981922	0.0	1.0713702758191208	-0.6299368418922517	0.0	1.0067243928943106	-0.5078659427499083	0.0
96	3.2323232323232323	0.881619299166588	-1.0022435764205024	0.0	0.8266203162162586	-0.9876837251626154	0.0	0.7889752101290363	-1.0710900956014209	0.0	0.81439306640625	-1.04120849609375	0.0	0.6857673339843746	-0.24904003906249994	0.0			0.0			0.0	0.9360053732318592	-0.9987009416671566	0.0	0.9271202169569732	-1.0737335291418895	0.0			0.0			0.0			0.0			0.0	0.9215673452113694	-0.6921073866144621	0.0	0.9039897938372451	-0.5878965137318157	0.0	0.9046125626119702	-0.6435876086354833	0.0	0.8439145079155366	-0.7140629683414548	0.0	0.748875959206111	-0.6247330829917596	0.0	0.6939312570181868	-0.503213452703277	0.0	0.999472222659105	-0.7251500809026421	0.0	1.070381801718901	-0.6284898719859493	0.0	1.0043142702130974	-0.5073948492424379	0.0
